<svg fill="#000000" width="373" height="353" viewBox="0 0 373 353" xmlns="http://www.w3.org/2000/svg">
	<g fill-opacity="0.01">
		<polygon points="35.4,233.8 79.2,206.1 35.4,178.5 	"/>
		<polygon points="35.4,174.9 79.2,147.2 35.4,119.6 	"/>
		<polygon points="219.1,0 175.4,0 175.4,27.6 	"/>
		<polygon points="80,0 36.2,0 80,27.6 	"/>
		<polygon points="125.8,0 82,0 82,27.6 	"/>
		<polygon points="35.4,57.1 79.2,29.4 35.4,1.8 	"/>
		<polygon points="0,156.2 0,197.2 32.5,176.7 	"/>
		<polygon points="33.4,178.5 0,199.5 0,212.7 33.4,233.8 	"/>
		<polygon points="33.4,60.7 0,81.8 0,94.9 33.4,116 	"/>
		<polygon points="33.4,119.6 0,140.7 0,153.8 33.4,174.9 	"/>
		<polygon points="0,97.3 0,138.3 32.5,117.8 	"/>
		<polygon points="33.4,1.8 0,22.9 0,36 33.4,57.1 	"/>
		<polygon points="0,38.4 0,79.4 32.5,58.9 	"/>
		<polygon points="362,204.3 373.3,197.2 373.3,156.2 362,149 	"/>
		<polygon points="373.3,212.7 373.3,199.5 362.9,206.1 	"/>
		<polygon points="373.3,153.8 373.3,140.7 362.9,147.2 	"/>
		<polygon points="362,145.4 373.3,138.3 373.3,97.3 362,90.2 	"/>
		<polygon points="373.3,36 373.3,22.9 362.9,29.4 	"/>
		<polygon points="362,86.5 373.3,79.4 373.3,38.4 362,31.3 	"/>
		<polygon points="175.4,353.2 218.9,353.2 175.4,325.7 	"/>
		<polygon points="82,353.2 125.5,353.2 82,325.7 	"/>
		<polygon points="36.5,353.2 80,353.2 80,325.7 	"/>
		<polygon points="35.4,351.5 79.2,323.9 35.4,296.3 	"/>
		<polygon points="33.4,296.3 0,317.3 0,330.5 33.4,351.5 	"/>
		<polygon points="373.3,330.5 373.3,317.3 362.9,323.9 	"/>
		<polygon points="175.4,149 175.4,204.3 219.1,176.7 	"/>
	</g>
	<g fill-opacity="0.02">
		<polygon points="268.7,149 268.7,204.3 312.5,176.7 	"/>
		<polygon points="313.3,233.8 313.3,178.5 269.5,206.1 	"/>
		<polygon points="268.7,207.9 268.7,263.2 312.5,235.6 	"/>
		<polygon points="222,233.8 265.8,206.1 222,178.5 	"/>
		<polygon points="173.4,204.3 173.4,149 129.6,176.7 	"/>
		<polygon points="220,233.8 220,178.5 176.2,206.1 	"/>
		<polygon points="175.4,263.2 219.2,235.6 175.4,207.9 	"/>
		<polygon points="173.4,263.2 173.4,207.9 129.6,235.6 	"/>
		<polygon points="128.7,178.5 128.7,233.8 172.5,206.1 	"/>
		<polygon points="313.3,116 313.3,60.7 269.5,88.3 	"/>
		<polygon points="313.3,174.9 313.3,119.6 269.5,147.2 	"/>
		<polygon points="268.7,90.2 268.7,145.4 312.5,117.8 	"/>
		<polygon points="220,116 220,60.7 176.2,88.3 	"/>
		<polygon points="222,174.9 265.8,147.2 222,119.6 	"/>
		<polygon points="175.4,90.2 175.4,145.4 219.2,117.8 	"/>
		<polygon points="266.7,0 222.9,0 266.7,27.6 	"/>
		<polygon points="312.5,0 268.7,0 268.7,27.6 	"/>
		<polygon points="313.3,57.1 313.3,1.8 269.5,29.4 	"/>
		<polygon points="222,57.1 265.8,29.4 222,1.8 	"/>
		<polygon points="0,215.1 0,256.1 32.5,235.6 	"/>
		<polygon points="315.3,60.7 315.3,116 359.1,88.3 	"/>
		<polygon points="360,145.4 360,90.2 316.2,117.8 	"/>
		<polygon points="315.3,174.9 359.1,147.2 315.3,119.6 	"/>
		<polygon points="360,0 316.2,0 360,27.6 	"/>
		<polygon points="362,263.2 373.3,256.1 373.3,215.1 362,207.9 	"/>
		<polygon points="313.3,351.5 313.3,296.3 269.5,323.9 	"/>
		<polygon points="82,322.1 125.8,294.5 82,266.8 	"/>
		<polygon points="313.3,292.6 313.3,237.4 269.5,265 	"/>
		<polygon points="126.7,292.6 126.7,237.4 82.9,265 	"/>
		<polygon points="0,274 0,315 32.5,294.5 	"/>
		<polygon points="316.5,353.2 360,353.2 360,325.7 	"/>
		<polygon points="33.4,237.4 0,258.4 0,271.6 33.4,292.6 	"/>
		<polygon points="362,322.1 373.3,315 373.3,274 362,266.8 	"/>
		<polygon points="373.3,271.6 373.3,258.4 362.9,265 	"/>
		<polygon points="268.7,353.2 312.2,353.2 268.7,325.7 	"/>
		<polygon points="223.2,353.2 266.7,353.2 266.7,325.7 	"/>
	</g>
	<g fill-opacity="0.03">
		<polygon points="126.7,116 126.7,60.7 82.9,88.3 	"/>
		<polygon points="128.7,116 172.5,88.3 128.7,60.7 	"/>
		<polygon points="173.4,0 129.6,0 173.4,27.6 	"/>
		<polygon points="220,351.5 220,296.3 176.2,323.9 	"/>
		<polygon points="129.9,353.2 173.4,353.2 173.4,325.7 	"/>
		<polygon points="128.7,351.5 172.5,323.9 128.7,296.3 	"/>
	</g>
	<g fill-opacity="0.04">
		<polygon points="220,174.9 220,119.6 176.2,147.2 	"/>
		<polygon points="128.7,119.6 128.7,174.9 172.5,147.2 	"/>
		<polygon points="220,57.1 220,1.8 176.2,29.4 	"/>
		<polygon points="175.4,31.3 175.4,86.5 219.1,58.9 	"/>
		<polygon points="173.4,86.5 173.4,31.3 129.6,58.9 	"/>
		<polygon points="220,292.6 220,237.4 176.2,265 	"/>
	</g>
	<g fill-opacity="0.05">
		<polygon points="266.7,204.3 266.7,149 222.9,176.7 	"/>
		<polygon points="266.7,263.2 266.7,207.9 222.9,235.6 	"/>
		<polygon points="80,204.3 80,149 36.2,176.7 	"/>
		<polygon points="82,204.3 125.8,176.7 82,149 	"/>
		<polygon points="80,263.2 80,207.9 36.2,235.6 	"/>
		<polygon points="360,263.2 360,207.9 316.2,235.6 	"/>
		<polygon points="360,86.5 360,31.3 316.2,58.9 	"/>
		<polygon points="315.3,1.8 315.3,57.1 359.1,29.4 	"/>
		<polygon points="315.3,292.6 359.1,265 315.3,237.4 	"/>
		<polygon points="0,0 0,20.5 32.5,0 	"/>
		<polygon points="373.3,20.5 373.3,0 362,0 362,27.6 	"/>
		<polygon points="0,353.2 32.2,353.2 0,332.8 	"/>
		<polygon points="362,353.2 373.3,353.2 373.3,332.9 362,325.7 	"/>
	</g>
</svg>
